<?xml version="1.0" encoding="utf-8"?><!DOCTYPE svg PUBLIC '-//W3C//DTD SVG 1.1//EN' 'http://www.w3.org/Graphics/SVG/1.1/DTD/svg11.dtd'><svg viewBox="0 0 122.879 103.609" xmlns="http://www.w3.org/2000/svg" xmlns:xlink="http://www.w3.org/1999/xlink"><style>:root>svg{display:none}:root>svg:target{display:block}</style><svg fill="none" viewBox="0 0 28 32" id="analytics" xmlns="http://www.w3.org/2000/svg"><path d="M27.59 6.715 21.156.405a.86.86 0 0 0-.633-.268H4.267A3.455 3.455 0 0 0 .82 3.584v24.589a3.455 3.455 0 0 0 3.447 3.447h20.161a3.455 3.455 0 0 0 3.447-3.447V7.379c0-.253-.11-.49-.284-.664Zm-6.15-3.463 3.257 3.194H21.74a.3.3 0 0 1-.3-.3V3.252Zm4.585 24.92c0 .886-.711 1.598-1.597 1.598H4.267a1.593 1.593 0 0 1-1.597-1.597V3.583c0-.885.711-1.596 1.597-1.596h15.338V6.16c0 1.186.965 2.135 2.135 2.135h4.285v19.877Z" fill="#FF006E"/><path d="M20.744 14.763H7.746a.918.918 0 0 0 0 1.835h12.998a.918.918 0 0 0 0-1.835ZM7.746 20.298H18.34a.918.918 0 0 0 0-1.835H7.746a.918.918 0 0 0 0 1.835ZM19.621 22.148H7.746a.918.918 0 0 0 0 1.834H19.62a.918.918 0 0 0 0-1.834Z" fill="#FF006E"/></svg><svg xml:space="preserve" viewBox="0 0 122.879 103.609" id="burger" xmlns="http://www.w3.org/2000/svg"><path fill="#FFCE4E" d="M10.368 0h102.144c5.703 0 10.367 4.665 10.367 10.367 0 5.702-4.664 10.368-10.367 10.368H10.368C4.666 20.735 0 16.07 0 10.368 0 4.665 4.666 0 10.368 0zm0 82.875h102.144c5.703 0 10.367 4.665 10.367 10.367 0 5.702-4.664 10.367-10.367 10.367H10.368C4.666 103.609 0 98.944 0 93.242c0-5.702 4.666-10.367 10.368-10.367zm0-41.437h102.144c5.703 0 10.367 4.665 10.367 10.367 0 5.702-4.664 10.368-10.367 10.368H10.368C4.666 62.173 0 57.507 0 51.805s4.666-10.367 10.368-10.367z"/></svg><svg fill="none" viewBox="0 0 32 32" id="burger2" xmlns="http://www.w3.org/2000/svg"><path d="M4.8 24h22.4v-3.2H4.8V24Zm0-16v3.2h22.4V8H4.8Zm0 9.6h22.4v-3.2H4.8v3.2Z" fill="#FFCE4E"/></svg><svg fill="none" viewBox="0 0 50 36" id="check" xmlns="http://www.w3.org/2000/svg"><path fill-rule="evenodd" clip-rule="evenodd" d="M48.625 1.365a2.677 2.677 0 0 1 0 3.74l-29.047 29.53a2.572 2.572 0 0 1-3.68 0L1.376 19.871a2.676 2.676 0 0 1 0-3.74 2.572 2.572 0 0 1 3.68 0l12.683 12.893 27.207-27.66a2.572 2.572 0 0 1 3.68.001Z" fill="#fff"/></svg><svg viewBox="0 0 32 32" xml:space="preserve" id="close" xmlns="http://www.w3.org/2000/svg"><path d="m17.459 16.014 8.239-8.194a.992.992 0 0 0 0-1.414 1.016 1.016 0 0 0-1.428 0l-8.232 8.187L7.73 6.284a1.009 1.009 0 0 0-1.428 0 1.015 1.015 0 0 0 0 1.432l8.302 8.303-8.332 8.286a.994.994 0 0 0 0 1.414 1.016 1.016 0 0 0 1.428 0l8.325-8.279 8.275 8.276a1.009 1.009 0 0 0 1.428 0 1.015 1.015 0 0 0 0-1.432l-8.269-8.27z" fill="#FFCE4E"/></svg><svg fill="none" viewBox="0 0 45 45" id="conversion" xmlns="http://www.w3.org/2000/svg"><path d="M37.647 9.55c-2.29 0-4.16 1.862-4.16 4.143a4.1 4.1 0 0 0 3.183 4.01v.721h-7.292a.975.975 0 0 0-.977.973v1.56H23.35v-3.254a4.132 4.132 0 0 0 3.183-4.01c0-2.281-1.87-4.143-4.16-4.143a4.146 4.146 0 0 0-4.142 4.143 4.1 4.1 0 0 0 3.182 4.01v3.254H16.36V19.38a.976.976 0 0 0-.976-.973H8.091v-.704a4.132 4.132 0 0 0 3.182-4.01A4.157 4.157 0 0 0 7.132 9.55c-2.274 0-4.16 1.862-4.16 4.143a4.114 4.114 0 0 0 3.183 4.01v1.677c0 .537.438.973.977.973h7.292v.604h-2.846a.976.976 0 0 0-.977.973v3.808c0 .352.185.671.488.839l8.404 4.764v3.892c0 .352.202.688.522.855.134.068.303.118.454.118.186 0 .37-.05.54-.168l3.822-2.533a.987.987 0 0 0 .438-.805v-1.36l8.403-4.763a.951.951 0 0 0 .489-.839v-3.825a.976.976 0 0 0-.977-.973h-2.846v-.587h7.292a.976.976 0 0 0 .976-.973v-1.677a4.132 4.132 0 0 0 3.183-4.01 4.146 4.146 0 0 0-4.142-4.143Zm2.206 4.143a2.21 2.21 0 0 1-2.206 2.198 2.21 2.21 0 0 1-2.206-2.198 2.21 2.21 0 0 1 2.206-2.197c1.212 0 2.206.973 2.206 2.197ZM20.958 29.915l-8.404-4.764v-2.265h19.67v2.265l-8.403 4.764a.952.952 0 0 0-.489.839v1.409l-1.87 1.241v-2.65a1.003 1.003 0 0 0-.504-.839ZM7.132 11.495a2.21 2.21 0 0 1 2.206 2.198 2.21 2.21 0 0 1-2.206 2.198 2.21 2.21 0 0 1-2.206-2.198c0-1.207.976-2.197 2.206-2.197Zm13.051 2.198a2.21 2.21 0 0 1 2.206-2.197 2.21 2.21 0 0 1 2.206 2.197 2.21 2.21 0 0 1-2.206 2.198c-1.23 0-2.206-.99-2.206-2.198Z" fill="#FB5607"/></svg><svg fill="none" viewBox="0 0 61 60" id="email" xmlns="http://www.w3.org/2000/svg"><path fill-rule="evenodd" clip-rule="evenodd" d="M6.407 13.125c0-1.105.881-2 1.968-2h45c1.086 0 1.967.895 1.967 2V45a3.892 3.892 0 0 1-1.137 2.752 3.826 3.826 0 0 1-2.705 1.123H10.25c-1.009 0-1.983-.4-2.706-1.123A3.892 3.892 0 0 1 6.407 45V13.125Zm3.935 2v29.75h41.066v-29.75H10.341Z" fill="#fff"/><path fill-rule="evenodd" clip-rule="evenodd" d="M6.914 11.786a1.945 1.945 0 0 1 2.778-.146l21.183 19.417L52.057 11.64a1.945 1.945 0 0 1 2.779.146c.727.82.663 2.085-.144 2.824l-22.5 20.625a1.943 1.943 0 0 1-2.635 0L7.057 14.61a2.024 2.024 0 0 1-.143-2.824Z" fill="#fff"/></svg><svg fill="none" viewBox="0 0 19 38" id="facebook" xmlns="http://www.w3.org/2000/svg"><path d="M18.144 18.76H12.87v18.61H5.673V18.76H.85v-6.405l4.823-.019-.02-3.752c0-5.23 1.471-8.414 7.864-8.414h5.313v6.405h-3.333c-2.47 0-2.608.91-2.608 2.578v3.202h5.96l-.705 6.405Z" fill="#fff"/></svg><svg fill="none" viewBox="0 0 38 34" id="grow" xmlns="http://www.w3.org/2000/svg"><path d="M36.215.083h-14.08a.993.993 0 0 0-.914.612c-.143.378-.072.793.215 1.081l3.839 3.856-9.596 11.8-.987-1.747a.944.944 0 0 0-.789-.487.922.922 0 0 0-.843.379L1.205 30.963c-.574.738-.503 1.747.143 2.414a1.817 1.817 0 0 0 2.404.162l11.891-9.134 1.166 1.892c.161.252.43.432.717.468a.965.965 0 0 0 .807-.288l13.668-13.729 3.497 3.513c.287.289.7.36 1.076.216a.997.997 0 0 0 .61-.918V1.073a.96.96 0 0 0-.968-.99Zm-.986 13.08-2.511-2.523a.988.988 0 0 0-.7-.288.988.988 0 0 0-.699.288l-13.47 13.567-1.094-1.766a1.018 1.018 0 0 0-.664-.45.98.98 0 0 0-.77.18L3.446 31.287l10.259-13.314.95 1.694c.162.288.449.468.772.504a.95.95 0 0 0 .843-.36L27.337 6.19a.999.999 0 0 0-.072-1.334l-2.762-2.793H35.23v11.098Z" fill="#FFBE0B"/><path d="M12.039 12.82a2.3 2.3 0 0 0 2.295-2.306 2.301 2.301 0 0 0-2.295-2.306 2.3 2.3 0 0 0-2.296 2.306 2.3 2.3 0 0 0 2.296 2.306ZM14.711 8.91a.882.882 0 0 0 .879-.882.867.867 0 0 0-.879-.865.867.867 0 0 0-.86.883c0 .486.376.865.86.865ZM26.764 26.459a2.301 2.301 0 0 0 2.295-2.306 2.301 2.301 0 0 0-2.295-2.306 2.3 2.3 0 0 0-2.296 2.306 2.3 2.3 0 0 0 2.296 2.306ZM24.091 25.738a.867.867 0 0 0-.86.883c0 .486.394.882.86.882a.894.894 0 0 0 .88-.882.894.894 0 0 0-.88-.883Z" fill="#FFBE0B"/></svg><svg fill="none" viewBox="0 0 39 40" id="instagram" xmlns="http://www.w3.org/2000/svg"><path d="M33.819.97H5.279C2.558.97.348 2.985.348 5.9v28.54c0 2.915 2.21 4.93 4.93 4.93h28.54c2.72 0 4.93-2.015 4.93-4.93V5.9c0-2.915-2.21-4.93-4.93-4.93Zm-7.218 6.006c0-.959.782-1.722 1.721-1.722h4.343c.958 0 1.721.783 1.721 1.722v4.147c0 .958-.782 1.721-1.721 1.721h-4.343a1.724 1.724 0 0 1-1.721-1.721V6.976Zm-7.003 5.653c4.264 0 7.707 3.345 7.707 7.473 0 4.127-3.462 7.472-7.707 7.472-4.265 0-7.708-3.345-7.708-7.472 0-4.128 3.443-7.473 7.707-7.473Zm14.808 20.814c0 .84-.685 1.526-1.526 1.526H6.14a1.528 1.528 0 0 1-1.526-1.526V17.206h3.521a11.418 11.418 0 0 0-.489 3.287c0 6.397 5.34 11.56 11.933 11.56 6.592 0 11.933-5.183 11.933-11.56 0-1.135-.176-2.25-.49-3.287h3.385v16.237Z" fill="#fff"/></svg><svg fill="none" viewBox="0 0 39 39" id="linkedin" xmlns="http://www.w3.org/2000/svg"><path d="m38.844 38.301.02-13.955c0-6.833-1.467-12.083-9.458-12.083-3.841 0-6.409 2.104-7.47 4.111h-.116V12.88h-7.567v25.402h7.876V25.716c0-3.32.637-6.524 4.729-6.524 4.034 0 4.111 3.784 4.111 6.737V38.3h7.875ZM9.332 12.88H1.437v25.402h7.895V12.88ZM5.375.237A4.572 4.572 0 0 0 .8 4.812c0 2.529 2.046 4.613 4.575 4.613 2.528 0 4.574-2.084 4.574-4.613A4.572 4.572 0 0 0 5.375.237Z" fill="#fff"/></svg><svg fill="none" viewBox="0 0 31 38" id="play" xmlns="http://www.w3.org/2000/svg"><path d="M29.29 17.71 2.512 1.07a1.47 1.47 0 0 0-2.06.527 1.532 1.532 0 0 0-.204.764v33.276c0 .269.07.532.204.764a1.5 1.5 0 0 0 .556.555 1.468 1.468 0 0 0 1.504-.029L29.29 20.291c.218-.135.397-.325.522-.551a1.532 1.532 0 0 0-.522-2.03Z" fill="#fff"/></svg><svg fill="none" viewBox="0 0 39 35" id="sales" xmlns="http://www.w3.org/2000/svg"><path d="M35.678 6.154h-1.343v-2.5c0-.884-.34-1.717-.969-2.346a3.319 3.319 0 0 0-2.363-.986H19.865c-.663 0-1.292.255-1.768.73L1.451 17.699c-.63.63-.97 1.463-.97 2.347 0 .884.34 1.717.97 2.346l10.797 10.797c.629.629 1.462.969 2.346.969.885 0 1.718-.34 2.347-.97l10.474-10.473a.862.862 0 0 0 0-1.224.862.862 0 0 0-1.224 0L15.717 31.964a1.58 1.58 0 0 1-1.14.476 1.58 1.58 0 0 1-1.139-.476L2.641 21.166a1.58 1.58 0 0 1-.476-1.14c0-.441.17-.832.476-1.139L19.287 2.244a.744.744 0 0 1 .544-.221H30.97c.425 0 .833.17 1.139.476.306.306.476.697.476 1.14v6.018h-3.18a.886.886 0 0 1-.493-.153 2.83 2.83 0 0 0 1.53-2.516c0-.765-.289-1.462-.833-2.007a2.83 2.83 0 0 0-2.006-.833c-.765 0-1.462.29-2.006.833a2.83 2.83 0 0 0-.834 2.007c0 .765.29 1.462.834 2.006.374.374.85.646 1.377.765a2.657 2.657 0 0 0 2.431 1.615h3.18v3.384a.787.787 0 0 1-.221.544l-2.007 2.006a.835.835 0 0 0-.255.612c0 .238.085.442.255.613.17.17.374.255.613.255a.835.835 0 0 0 .612-.255l2.006-2.007a2.482 2.482 0 0 0 .731-1.768v-3.384h1.343a2.62 2.62 0 0 0 2.619-2.618 2.59 2.59 0 0 0-2.602-2.601Zm.902 2.618a.907.907 0 0 1-.901.901h-1.344V7.871h1.343c.494 0 .902.408.902.901Zm-8.077-2.448a2.698 2.698 0 0 0-1.547 1.564c-.034-.034-.085-.068-.12-.102a1.121 1.121 0 0 1-.322-.782c0-.29.119-.578.323-.782.204-.204.493-.323.782-.323.289 0 .578.119.782.323.051.034.068.068.102.102Z" fill="#3A86FF"/><path d="M17.298 23.054c.425 0 .833-.17 1.14-.476a1.58 1.58 0 0 0 .475-1.139c0-.425-.17-.833-.476-1.14a1.58 1.58 0 0 0-1.14-.475c-.424 0-.832.17-1.138.476a1.58 1.58 0 0 0-.476 1.139c0 .442.17.833.476 1.14a1.61 1.61 0 0 0 1.139.475ZM18.794 15.165c.63-.629.63-1.65 0-2.261a1.58 1.58 0 0 0-1.139-.476c-.425 0-.833.17-1.14.476a1.59 1.59 0 0 0 1.14 2.72c.425 0 .833-.153 1.14-.459Z" fill="#3A86FF"/><path d="M8.252 17.953a.863.863 0 0 0-.255-.612c-.323-.323-.884-.323-1.224 0L4.68 19.433a.875.875 0 0 0-.255.612c0 .238.085.442.255.612l9.301 9.3c.17.17.374.255.612.255a.834.834 0 0 0 .612-.255l13.91-13.908a.862.862 0 0 0 0-1.224l-9.302-9.3a.894.894 0 0 0-1.224 0l-7.668 7.668a.862.862 0 0 0 0 1.224c.34.34.884.34 1.224 0l7.056-7.073 6.904 6.903-19.078 5.27.952-.952a.823.823 0 0 0 .272-.612Zm-.63 3.197 19.283-5.322L14.61 28.121 7.623 21.15ZM28.282 19.416a.907.907 0 0 0-.255.612.875.875 0 0 0 .867.867.863.863 0 0 0 .612-.255.907.907 0 0 0 .255-.612.863.863 0 0 0-.255-.612c-.323-.306-.901-.306-1.224 0Z" fill="#3A86FF"/><path d="M10.072 16.491a.863.863 0 0 0 0-1.224.894.894 0 0 0-1.225 0 .94.94 0 0 0-.255.612c0 .221.085.442.255.612a.907.907 0 0 0 .612.255.863.863 0 0 0 .613-.255Z" fill="#3A86FF"/></svg><svg fill="none" viewBox="0 0 41 34" id="twitter" xmlns="http://www.w3.org/2000/svg"><path d="m36.225 9.049.02 1.052c0 10.801-8.202 23.281-23.198 23.281A22.847 22.847 0 0 1 .55 29.681a16.213 16.213 0 0 0 12.053-3.398c-3.568-.061-6.571-2.428-7.62-5.684a7.713 7.713 0 0 0 1.533.141c.745 0 1.47-.1 2.136-.283a8.155 8.155 0 0 1-6.53-8.01v-.081a8.035 8.035 0 0 0 3.688 1.011 8.193 8.193 0 0 1-3.608-6.796c0-1.497.403-2.913 1.109-4.126a23.016 23.016 0 0 0 16.79 8.536A7.985 7.985 0 0 1 19.9 9.13c0-4.511 3.628-8.172 8.143-8.172 2.338 0 4.474.99 5.965 2.569a16.736 16.736 0 0 0 5.18-1.962 8.183 8.183 0 0 1-3.587 4.53 16.663 16.663 0 0 0 4.696-1.294 17.332 17.332 0 0 1-4.072 4.248Z" fill="#fff"/></svg></svg>